ISO-10303-21;
HEADER;
FILE_DESCRIPTION (( 'STEP AP214' ),
    '1' );
FILE_NAME ('encoder-disk-20mm.STEP',
    '2026-09-18T10:21:05',
    ( '' ),
    ( '' ),
    'SwSTEP 2.0',
    'SolidWorks 2026',
    '' );
FILE_SCHEMA (( 'AUTOMOTIVE_DESIGN' ));
ENDSEC;

DATA;
#1 = FACE_OUTER_BOUND ( 'NONE', #115, .T. ) ;
#2 = PRODUCT_RELATED_PRODUCT_CATEGORY ( 'part', '', ( #210 ) ) ;
#3 = AXIS2_PLACEMENT_3D ( 'NONE', #86, #83, #198 ) ;
#4 = DIRECTION ( 'NONE',  ( 0.000000000000000000, 0.000000000000000000, 1.000000000000000000 ) ) ;
#5 = LINE ( 'NONE', #220, #6 ) ;
#6 = VECTOR ( 'NONE', #329, 1000.000000000000000 ) ;
#7 = AXIS2_PLACEMENT_3D ( 'NONE', #291, #119, #262 ) ;
#8 = PRODUCT_CONTEXT ( 'NONE', #25, 'mechanical' ) ;
#9 = EDGE_LOOP ( 'NONE', ( #59, #38, #311, #330 ) ) ;
#10 = ORIENTED_EDGE ( 'NONE', *, *, #42, .F. ) ;
#11 = VERTEX_POINT ( 'NONE', #89 ) ;
#12 = EDGE_LOOP ( 'NONE', ( #252, #173, #277, #279 ) ) ;
#13 = VECTOR ( 'NONE', #286, 1000.000000000000000 ) ;
#14 = ORIENTED_EDGE ( 'NONE', *, *, #30, .T. ) ;
#15 = PLANE ( 'NONE',  #7 ) ;
#16 = AXIS2_PLACEMENT_3D ( 'NONE', #267, #295, #49 ) ;
#17 = ORIENTED_EDGE ( 'NONE', *, *, #347, .T. ) ;
#18 = CARTESIAN_POINT ( 'NONE',  ( 0.000000000000000000, 4.000000000000000000, 0.000000000000000000 ) ) ;
#19 = ORIENTED_EDGE ( 'NONE', *, *, #321, .T. ) ;
#20 = CIRCLE ( 'NONE', #16, 3.000000000000000444 ) ;
#21 = DIRECTION ( 'NONE',  ( 0.000000000000000000, 1.000000000000000000, 0.000000000000000000 ) ) ;
#22 = CARTESIAN_POINT ( 'NONE',  ( -20.00000000000000000, 2.800000000000000266, 0.000000000000000000 ) ) ;
#23 = ADVANCED_BREP_SHAPE_REPRESENTATION ( 'encoder-disk-20mm', ( #207, #3 ), #167 ) ;
#24 = DIRECTION ( 'NONE',  ( -0.000000000000000000, -1.000000000000000000, -0.000000000000000000 ) ) ;
#25 = APPLICATION_CONTEXT ( 'automotive_design' ) ;
#26 = CARTESIAN_POINT ( 'NONE',  ( 0.000000000000000000, 4.000000000000000000, 0.000000000000000000 ) ) ;
#27 = LINE ( 'NONE', #154, #328 ) ;
#28 = DIRECTION ( 'NONE',  ( 0.000000000000000000, 0.000000000000000000, -1.000000000000000000 ) ) ;
#29 = DIRECTION ( 'NONE',  ( 0.000000000000000000, 1.000000000000000000, 0.000000000000000000 ) ) ;
#30 = EDGE_CURVE ( 'NONE', #84, #246, #60, .T. ) ;
#31 = EDGE_CURVE ( 'NONE', #225, #82, #136, .T. ) ;
#32 = DIRECTION ( 'NONE',  ( -0.000000000000000000, 1.000000000000000000, -0.000000000000000000 ) ) ;
#33 = ORIENTED_EDGE ( 'NONE', *, *, #97, .F. ) ;
#34 = AXIS2_PLACEMENT_3D ( 'NONE', #62, #169, #228 ) ;
#35 = AXIS2_PLACEMENT_3D ( 'NONE', #26, #288, #263 ) ;
#36 = EDGE_LOOP ( 'NONE', ( #54, #309, #55, #146 ) ) ;
#37 = ORIENTED_EDGE ( 'NONE', *, *, #190, .T. ) ;
#38 = ORIENTED_EDGE ( 'NONE', *, *, #69, .T. ) ;
#39 = CARTESIAN_POINT ( 'NONE',  ( -20.00000000000000000, 4.000000000000000000, 0.000000000000000000 ) ) ;
#40 = VECTOR ( 'NONE', #281, 1000.000000000000000 ) ;
#41 = CYLINDRICAL_SURFACE ( 'NONE', #266, 3.000000000000000444 ) ;
#42 = EDGE_CURVE ( 'NONE', #246, #162, #224, .T. ) ;
#43 = CARTESIAN_POINT ( 'NONE',  ( 0.000000000000000000, 4.000000000000000000, 0.000000000000000000 ) ) ;
#44 = CARTESIAN_POINT ( 'NONE',  ( -20.00000000000000000, 2.800000000000000266, -5.000000000000000000 ) ) ;
#45 = FACE_OUTER_BOUND ( 'NONE', #258, .T. ) ;
#46 = FACE_OUTER_BOUND ( 'NONE', #12, .T. ) ;
#47 = CARTESIAN_POINT ( 'NONE',  ( -20.00000000000000000, 2.800000000000000266, 0.000000000000000000 ) ) ;
#48 = CARTESIAN_POINT ( 'NONE',  ( 0.000000000000000000, 0.000000000000000000, 0.000000000000000000 ) ) ;
#49 = DIRECTION ( 'NONE',  ( 0.000000000000000000, 0.000000000000000000, 1.000000000000000000 ) ) ;
#50 = DIRECTION ( 'NONE',  ( 0.000000000000000000, 0.000000000000000000, 1.000000000000000000 ) ) ;
#51 = AXIS2_PLACEMENT_3D ( 'NONE', #293, #336, #91 ) ;
#52 = LINE ( 'NONE', #108, #208 ) ;
#53 = CARTESIAN_POINT ( 'NONE',  ( 0.000000000000000000, 0.000000000000000000, 0.000000000000000000 ) ) ;
#54 = ORIENTED_EDGE ( 'NONE', *, *, #344, .F. ) ;
#55 = ORIENTED_EDGE ( 'NONE', *, *, #85, .T. ) ;
#56 = ORIENTED_EDGE ( 'NONE', *, *, #61, .F. ) ;
#57 = VECTOR ( 'NONE', #32, 1000.000000000000000 ) ;
#58 = ORIENTED_EDGE ( 'NONE', *, *, #296, .T. ) ;
#59 = ORIENTED_EDGE ( 'NONE', *, *, #265, .T. ) ;
#60 = LINE ( 'NONE', #168, #57 ) ;
#61 = EDGE_CURVE ( 'NONE', #192, #162, #5, .T. ) ;
#62 = CARTESIAN_POINT ( 'NONE',  ( 0.000000000000000000, 4.000000000000000000, 0.000000000000000000 ) ) ;
#63 = CIRCLE ( 'NONE', #327, 3.000000000000000444 ) ;
#64 = CARTESIAN_POINT ( 'NONE',  ( 3.673940397442059178E-15, 0.000000000000000000, 30.00000000000000000 ) ) ;
#65 = DIRECTION ( 'NONE',  ( 0.000000000000000000, 0.000000000000000000, -1.000000000000000000 ) ) ;
#66 = VECTOR ( 'NONE', #270, 1000.000000000000000 ) ;
#67 = PRODUCT_DEFINITION_CONTEXT ( 'detailed design', #205, 'design' ) ;
#68 = FACE_OUTER_BOUND ( 'NONE', #278, .T. ) ;
#69 = EDGE_CURVE ( 'NONE', #138, #11, #202, .T. ) ;
#70 = DIRECTION ( 'NONE',  ( -0.000000000000000000, -1.000000000000000000, -0.000000000000000000 ) ) ;
#71 =( NAMED_UNIT ( * ) SI_UNIT ( $, .STERADIAN. ) SOLID_ANGLE_UNIT ( ) );
#72 = VERTEX_POINT ( 'NONE', #313 ) ;
#73 = CARTESIAN_POINT ( 'NONE',  ( -2.449999999999999289, 4.000000000000000000, 6.674325055353075238E-16 ) ) ;
#74 = ORIENTED_EDGE ( 'NONE', *, *, #254, .T. ) ;
#75 = AXIS2_PLACEMENT_3D ( 'NONE', #153, #345, #104 ) ;
#76 = DIRECTION ( 'NONE',  ( 0.000000000000000000, -0.000000000000000000, 1.000000000000000000 ) ) ;
#77 = CARTESIAN_POINT ( 'NONE',  ( -2.449999999999999289, 4.000000000000000000, -1.731328969318080224 ) ) ;
#78 = CIRCLE ( 'NONE', #120, 3.000000000000000444 ) ;
#79 = DIRECTION ( 'NONE',  ( 0.000000000000000000, 0.000000000000000000, -1.000000000000000000 ) ) ;
#80 = CARTESIAN_POINT ( 'NONE',  ( -20.00000000000000000, 2.800000000000000266, 0.000000000000000000 ) ) ;
#81 = LINE ( 'NONE', #157, #66 ) ;
#82 = VERTEX_POINT ( 'NONE', #64 ) ;
#83 = DIRECTION ( 'NONE',  ( 0.000000000000000000, 0.000000000000000000, 1.000000000000000000 ) ) ;
#84 = VERTEX_POINT ( 'NONE', #122 ) ;
#85 = EDGE_CURVE ( 'NONE', #82, #248, #251, .T. ) ;
#86 = CARTESIAN_POINT ( 'NONE',  ( 0.000000000000000000, 0.000000000000000000, 0.000000000000000000 ) ) ;
#87 = ORIENTED_EDGE ( 'NONE', *, *, #282, .F. ) ;
#88 = ORIENTED_EDGE ( 'NONE', *, *, #265, .F. ) ;
#89 = CARTESIAN_POINT ( 'NONE',  ( 3.673940397442060361E-16, 0.000000000000000000, 3.000000000000000444 ) ) ;
#90 = EDGE_CURVE ( 'NONE', #84, #192, #181, .T. ) ;
#91 = DIRECTION ( 'NONE',  ( 0.000000000000000000, 0.000000000000000000, 1.000000000000000000 ) ) ;
#92 = EDGE_CURVE ( 'NONE', #72, #310, #63, .T. ) ;
#93 = CIRCLE ( 'NONE', #276, 5.000000000000000000 ) ;
#94 = CARTESIAN_POINT ( 'NONE',  ( -20.00000000000000000, 4.000000000000000000, -5.000000000000000000 ) ) ;
#95 = ORIENTED_EDGE ( 'NONE', *, *, #347, .F. ) ;
#96 = DIRECTION ( 'NONE',  ( 0.000000000000000000, 0.000000000000000000, 1.000000000000000000 ) ) ;
#97 = EDGE_CURVE ( 'NONE', #138, #72, #110, .T. ) ;
#98 = CYLINDRICAL_SURFACE ( 'NONE', #170, 5.000000000000000000 ) ;
#99 = LINE ( 'NONE', #209, #128 ) ;
#100 = AXIS2_PLACEMENT_3D ( 'NONE', #53, #134, #4 ) ;
#101 = DIRECTION ( 'NONE',  ( -0.000000000000000000, 1.000000000000000000, -0.000000000000000000 ) ) ;
#102 = EDGE_LOOP ( 'NONE', ( #331, #249, #33, #88 ) ) ;
#103 = FACE_OUTER_BOUND ( 'NONE', #253, .T. ) ;
#104 = DIRECTION ( 'NONE',  ( 0.000000000000000000, 0.000000000000000000, 1.000000000000000000 ) ) ;
#105 = PRESENTATION_STYLE_ASSIGNMENT (( #292 ) ) ;
#106 = AXIS2_PLACEMENT_3D ( 'NONE', #22, #180, #211 ) ;
#107 =( NAMED_UNIT ( * ) SI_UNIT ( $, .STERADIAN. ) SOLID_ANGLE_UNIT ( ) );
#108 = CARTESIAN_POINT ( 'NONE',  ( -2.449999999999999289, 0.000000000000000000, -1.731328969318080224 ) ) ;
#109 = APPLICATION_PROTOCOL_DEFINITION ( 'draft international standard', 'automotive_design', 1998, #25 ) ;
#110 = CIRCLE ( 'NONE', #34, 3.000000000000000444 ) ;
#111 = CIRCLE ( 'NONE', #51, 5.000000000000000000 ) ;
#112 = ORIENTED_EDGE ( 'NONE', *, *, #290, .T. ) ;
#113 = ORIENTED_EDGE ( 'NONE', *, *, #247, .T. ) ;
#114 = VERTEX_POINT ( 'NONE', #337 ) ;
#115 = EDGE_LOOP ( 'NONE', ( #226, #139, #222, #236 ) ) ;
#116 = ORIENTED_EDGE ( 'NONE', *, *, #344, .T. ) ;
#117 = CARTESIAN_POINT ( 'NONE',  ( 0.000000000000000000, 0.000000000000000000, 0.000000000000000000 ) ) ;
#118 = ORIENTED_EDGE ( 'NONE', *, *, #333, .T. ) ;
#119 = DIRECTION ( 'NONE',  ( 1.000000000000000000, 0.000000000000000000, 0.000000000000000000 ) ) ;
#120 = AXIS2_PLACEMENT_3D ( 'NONE', #48, #151, #298 ) ;
#121 = FACE_BOUND ( 'NONE', #196, .T. ) ;
#122 = CARTESIAN_POINT ( 'NONE',  ( -20.00000000000000000, 2.800000000000000266, 5.000000000000000000 ) ) ;
#123 = CYLINDRICAL_SURFACE ( 'NONE', #106, 5.000000000000000000 ) ;
#124 = CIRCLE ( 'NONE', #280, 30.00000000000000000 ) ;
#125 = ADVANCED_FACE ( 'NONE', ( #338 ), #204, .T. ) ;
#126 = AXIS2_PLACEMENT_3D ( 'NONE', #47, #174, #259 ) ;
#127 = DIRECTION ( 'NONE',  ( 0.000000000000000000, 0.000000000000000000, 1.000000000000000000 ) ) ;
#128 = VECTOR ( 'NONE', #144, 1000.000000000000000 ) ;
#129 = DIRECTION ( 'NONE',  ( -0.000000000000000000, -1.000000000000000000, -0.000000000000000000 ) ) ;
#130 = CIRCLE ( 'NONE', #269, 30.00000000000000000 ) ;
#131 = FACE_OUTER_BOUND ( 'NONE', #179, .T. ) ;
#132 = ADVANCED_FACE ( 'NONE', ( #45 ), #15, .T. ) ;
#133 = CARTESIAN_POINT ( 'NONE',  ( -2.450000000000000178, 4.000000000000000000, 1.731328969318078892 ) ) ;
#134 = DIRECTION ( 'NONE',  ( 0.000000000000000000, 1.000000000000000000, 0.000000000000000000 ) ) ;
#135 = CARTESIAN_POINT ( 'NONE',  ( 0.000000000000000000, 4.000000000000000000, 0.000000000000000000 ) ) ;
#136 = LINE ( 'NONE', #189, #40 ) ;
#137 = AXIS2_PLACEMENT_3D ( 'NONE', #175, #261, #76 ) ;
#138 = VERTEX_POINT ( 'NONE', #150 ) ;
#139 = ORIENTED_EDGE ( 'NONE', *, *, #97, .T. ) ;
#140 = EDGE_LOOP ( 'NONE', ( #275, #332 ) ) ;
#141 = EDGE_CURVE ( 'NONE', #310, #306, #99, .T. ) ;
#142 = ORIENTED_EDGE ( 'NONE', *, *, #254, .F. ) ;
#143 = FACE_OUTER_BOUND ( 'NONE', #36, .T. ) ;
#144 = DIRECTION ( 'NONE',  ( -0.000000000000000000, -1.000000000000000000, -0.000000000000000000 ) ) ;
#145 = FILL_AREA_STYLE ('',( #237 ) ) ;
#146 = ORIENTED_EDGE ( 'NONE', *, *, #333, .F. ) ;
#147 = CARTESIAN_POINT ( 'NONE',  ( 3.673940397442060361E-16, 4.000000000000000000, 3.000000000000000444 ) ) ;
#148 = UNCERTAINTY_MEASURE_WITH_UNIT (LENGTH_MEASURE( 1.000000000000000082E-05 ), #341, 'distance_accuracy_value', 'NONE');
#149 = CARTESIAN_POINT ( 'NONE',  ( -20.00000000000000000, 2.800000000000000266, 0.000000000000000000 ) ) ;
#150 = CARTESIAN_POINT ( 'NONE',  ( 3.673940397442060361E-16, 4.000000000000000000, 3.000000000000000444 ) ) ;
#151 = DIRECTION ( 'NONE',  ( 0.000000000000000000, 1.000000000000000000, 0.000000000000000000 ) ) ;
#152 = ADVANCED_FACE ( 'NONE', ( #143 ), #316, .T. ) ;
#153 = CARTESIAN_POINT ( 'NONE',  ( 0.000000000000000000, 4.000000000000000000, 0.000000000000000000 ) ) ;
#154 = CARTESIAN_POINT ( 'NONE',  ( -2.450000000000000178, 4.000000000000000000, 1.731328969318078892 ) ) ;
#155 = COLOUR_RGB ( '',0.7921568627450980005, 0.8196078431372548767, 0.9333333333333333481 ) ;
#156 = CARTESIAN_POINT ( 'NONE',  ( 0.000000000000000000, 4.000000000000000000, 0.000000000000000000 ) ) ;
#157 = CARTESIAN_POINT ( 'NONE',  ( 0.000000000000000000, 4.000000000000000000, -30.00000000000000000 ) ) ;
#158 = DIRECTION ( 'NONE',  ( 0.000000000000000000, 1.000000000000000000, 0.000000000000000000 ) ) ;
#159 = LINE ( 'NONE', #300, #212 ) ;
#160 = PRODUCT_DEFINITION ( 'UNKNOWN', '', #191, #67 ) ;
#161 = DIRECTION ( 'NONE',  ( 0.000000000000000000, 1.000000000000000000, 0.000000000000000000 ) ) ;
#162 = VERTEX_POINT ( 'NONE', #94 ) ;
#163 = ORIENTED_EDGE ( 'NONE', *, *, #42, .T. ) ;
#164 = APPLICATION_PROTOCOL_DEFINITION ( 'draft international standard', 'automotive_design', 1998, #205 ) ;
#165 = ORIENTED_EDGE ( 'NONE', *, *, #141, .T. ) ;
#166 = ADVANCED_FACE ( 'NONE', ( #312 ), #41, .F. ) ;
#167 =( GEOMETRIC_REPRESENTATION_CONTEXT ( 3 ) GLOBAL_UNCERTAINTY_ASSIGNED_CONTEXT ( ( #339 ) ) GLOBAL_UNIT_ASSIGNED_CONTEXT ( ( #238, #303, #107 ) ) REPRESENTATION_CONTEXT ( 'NONE', 'WORKASPACE' ) );
#168 = CARTESIAN_POINT ( 'NONE',  ( -20.00000000000000000, 2.800000000000000266, 5.000000000000000000 ) ) ;
#169 = DIRECTION ( 'NONE',  ( 0.000000000000000000, 1.000000000000000000, 0.000000000000000000 ) ) ;
#170 = AXIS2_PLACEMENT_3D ( 'NONE', #149, #101, #127 ) ;
#171 = DIRECTION ( 'NONE',  ( 0.000000000000000000, 1.000000000000000000, 0.000000000000000000 ) ) ;
#172 = DIRECTION ( 'NONE',  ( 0.000000000000000000, 0.000000000000000000, -1.000000000000000000 ) ) ;
#173 = ORIENTED_EDGE ( 'NONE', *, *, #61, .T. ) ;
#174 = DIRECTION ( 'NONE',  ( 0.000000000000000000, 1.000000000000000000, 0.000000000000000000 ) ) ;
#175 = CARTESIAN_POINT ( 'NONE',  ( 0.000000000000000000, 0.000000000000000000, 0.000000000000000000 ) ) ;
#176 = DIRECTION ( 'NONE',  ( 0.000000000000000000, 1.000000000000000000, 0.000000000000000000 ) ) ;
#177 = EDGE_CURVE ( 'NONE', #162, #246, #111, .T. ) ;
#178 = CARTESIAN_POINT ( 'NONE',  ( 0.000000000000000000, 0.000000000000000000, -30.00000000000000000 ) ) ;
#179 = EDGE_LOOP ( 'NONE', ( #308, #203, #118, #58 ) ) ;
#180 = DIRECTION ( 'NONE',  ( -0.000000000000000000, 1.000000000000000000, -0.000000000000000000 ) ) ;
#181 = CIRCLE ( 'NONE', #126, 5.000000000000000000 ) ;
#182 = DIRECTION ( 'NONE',  ( 0.000000000000000000, 1.000000000000000000, 0.000000000000000000 ) ) ;
#183 = ADVANCED_FACE ( 'NONE', ( #201 ), #285, .F. ) ;
#184 = CARTESIAN_POINT ( 'NONE',  ( 0.000000000000000000, 4.000000000000000000, 0.000000000000000000 ) ) ;
#185 = AXIS2_PLACEMENT_3D ( 'NONE', #326, #268, #28 ) ;
#186 = CYLINDRICAL_SURFACE ( 'NONE', #242, 3.000000000000000444 ) ;
#187 = CARTESIAN_POINT ( 'NONE',  ( -2.449999999999999289, 0.000000000000000000, 1.731328969318078892 ) ) ;
#188 = ADVANCED_FACE ( 'NONE', ( #103 ), #123, .F. ) ;
#189 = CARTESIAN_POINT ( 'NONE',  ( 3.673940397442059178E-15, 4.000000000000000000, 30.00000000000000000 ) ) ;
#190 = EDGE_CURVE ( 'NONE', #335, #342, #27, .T. ) ;
#191 = PRODUCT_DEFINITION_FORMATION_WITH_SPECIFIED_SOURCE ( 'ANY', '', #210, .NOT_KNOWN. ) ;
#192 = VERTEX_POINT ( 'NONE', #44 ) ;
#193 = SHAPE_DEFINITION_REPRESENTATION ( #289, #23 ) ;
#194 = EDGE_LOOP ( 'NONE', ( #87, #334, #165, #142 ) ) ;
#195 = ADVANCED_FACE ( 'NONE', ( #121, #68, #264 ), #235, .T. ) ;
#196 = EDGE_LOOP ( 'NONE', ( #10, #250 ) ) ;
#197 = ORIENTED_EDGE ( 'NONE', *, *, #85, .F. ) ;
#198 = DIRECTION ( 'NONE',  ( 1.000000000000000000, 0.000000000000000000, 0.000000000000000000 ) ) ;
#199 = VERTEX_POINT ( 'NONE', #233 ) ;
#200 = CIRCLE ( 'NONE', #75, 3.000000000000000444 ) ;
#201 = FACE_OUTER_BOUND ( 'NONE', #9, .T. ) ;
#202 = LINE ( 'NONE', #147, #13 ) ;
#203 = ORIENTED_EDGE ( 'NONE', *, *, #290, .F. ) ;
#204 = PLANE ( 'NONE',  #229 ) ;
#205 = APPLICATION_CONTEXT ( 'automotive_design' ) ;
#206 = FACE_OUTER_BOUND ( 'NONE', #221, .T. ) ;
#207 = MANIFOLD_SOLID_BREP ( 'Cut-Extrude1', #239 ) ;
#208 = VECTOR ( 'NONE', #273, 1000.000000000000000 ) ;
#209 = CARTESIAN_POINT ( 'NONE',  ( -2.449999999999999289, 4.000000000000000000, -1.731328969318080224 ) ) ;
#210 = PRODUCT ( 'encoder-disk-20mm', 'encoder-disk-20mm', '', ( #8 ) ) ;
#211 = DIRECTION ( 'NONE',  ( 0.000000000000000000, 0.000000000000000000, 1.000000000000000000 ) ) ;
#212 = VECTOR ( 'NONE', #217, 1000.000000000000000 ) ;
#213 = ADVANCED_FACE ( 'NONE', ( #46 ), #98, .F. ) ;
#214 = DIRECTION ( 'NONE',  ( 0.000000000000000000, 0.000000000000000000, 1.000000000000000000 ) ) ;
#215 = CARTESIAN_POINT ( 'NONE',  ( -2.449999999999999289, 0.000000000000000000, -1.731328969318080224 ) ) ;
#216 = CIRCLE ( 'NONE', #100, 30.00000000000000000 ) ;
#217 = DIRECTION ( 'NONE',  ( -0.000000000000000000, -1.000000000000000000, -0.000000000000000000 ) ) ;
#218 = ADVANCED_FACE ( 'NONE', ( #206, #322 ), #323, .F. ) ;
#219 = AXIS2_PLACEMENT_3D ( 'NONE', #315, #70, #255 ) ;
#220 = CARTESIAN_POINT ( 'NONE',  ( -20.00000000000000000, 2.800000000000000266, -5.000000000000000000 ) ) ;
#221 = EDGE_LOOP ( 'NONE', ( #318, #197 ) ) ;
#222 = ORIENTED_EDGE ( 'NONE', *, *, #282, .T. ) ;
#223 = ORIENTED_EDGE ( 'NONE', *, *, #232, .T. ) ;
#224 = CIRCLE ( 'NONE', #272, 5.000000000000000000 ) ;
#225 = VERTEX_POINT ( 'NONE', #294 ) ;
#226 = ORIENTED_EDGE ( 'NONE', *, *, #69, .F. ) ;
#227 = DIRECTION ( 'NONE',  ( 0.000000000000000000, 0.000000000000000000, 1.000000000000000000 ) ) ;
#228 = DIRECTION ( 'NONE',  ( 0.000000000000000000, 0.000000000000000000, 1.000000000000000000 ) ) ;
#229 = AXIS2_PLACEMENT_3D ( 'NONE', #231, #21, #340 ) ;
#230 =( NAMED_UNIT ( * ) PLANE_ANGLE_UNIT ( ) SI_UNIT ( $, .RADIAN. ) );
#231 = CARTESIAN_POINT ( 'NONE',  ( -20.00000000000000000, 2.800000000000000266, 0.000000000000000000 ) ) ;
#232 = EDGE_CURVE ( 'NONE', #342, #11, #78, .T. ) ;
#233 = CARTESIAN_POINT ( 'NONE',  ( 0.000000000000000000, 0.000000000000000000, -3.000000000000000444 ) ) ;
#234 = CARTESIAN_POINT ( 'NONE',  ( -20.00000000000000000, 4.000000000000000000, 5.000000000000000000 ) ) ;
#235 = PLANE ( 'NONE',  #35 ) ;
#236 = ORIENTED_EDGE ( 'NONE', *, *, #321, .F. ) ;
#237 = FILL_AREA_STYLE_COLOUR ( '', #155 ) ;
#238 =( LENGTH_UNIT ( ) NAMED_UNIT ( * ) SI_UNIT ( .MILLI., .METRE. ) );
#239 = CLOSED_SHELL ( 'NONE', ( #213, #183, #319, #152, #195, #218, #314, #166, #132, #188, #125 ) ) ;
#240 = CARTESIAN_POINT ( 'NONE',  ( 0.000000000000000000, 0.000000000000000000, 0.000000000000000000 ) ) ;
#241 = DIRECTION ( 'NONE',  ( -0.000000000000000000, -1.000000000000000000, -0.000000000000000000 ) ) ;
#242 = AXIS2_PLACEMENT_3D ( 'NONE', #135, #241, #79 ) ;
#243 = DIRECTION ( 'NONE',  ( 0.000000000000000000, 1.000000000000000000, 0.000000000000000000 ) ) ;
#244 = DIRECTION ( 'NONE',  ( 0.000000000000000000, 0.000000000000000000, 1.000000000000000000 ) ) ;
#245 = PRESENTATION_LAYER_ASSIGNMENT (  '', '', ( #307 ) ) ;
#246 = VERTEX_POINT ( 'NONE', #234 ) ;
#247 = EDGE_CURVE ( 'NONE', #310, #335, #343, .T. ) ;
#248 = VERTEX_POINT ( 'NONE', #178 ) ;
#249 = ORIENTED_EDGE ( 'NONE', *, *, #92, .F. ) ;
#250 = ORIENTED_EDGE ( 'NONE', *, *, #177, .F. ) ;
#251 = CIRCLE ( 'NONE', #283, 30.00000000000000000 ) ;
#252 = ORIENTED_EDGE ( 'NONE', *, *, #271, .F. ) ;
#253 = EDGE_LOOP ( 'NONE', ( #56, #320, #14, #163 ) ) ;
#254 = EDGE_CURVE ( 'NONE', #199, #306, #20, .T. ) ;
#255 = DIRECTION ( 'NONE',  ( 0.000000000000000000, 0.000000000000000000, -1.000000000000000000 ) ) ;
#256 = DIRECTION ( 'NONE',  ( -0.000000000000000000, -1.000000000000000000, -0.000000000000000000 ) ) ;
#257 = SURFACE_SIDE_STYLE ('',( #346 ) ) ;
#258 = EDGE_LOOP ( 'NONE', ( #95, #305, #113, #37 ) ) ;
#259 = DIRECTION ( 'NONE',  ( 0.000000000000000000, 0.000000000000000000, 1.000000000000000000 ) ) ;
#260 = AXIS2_PLACEMENT_3D ( 'NONE', #317, #24, #172 ) ;
#261 = DIRECTION ( 'NONE',  ( 0.000000000000000000, 1.000000000000000000, 0.000000000000000000 ) ) ;
#262 = DIRECTION ( 'NONE',  ( 0.000000000000000000, 0.000000000000000000, -1.000000000000000000 ) ) ;
#263 = DIRECTION ( 'NONE',  ( 0.000000000000000000, -0.000000000000000000, 1.000000000000000000 ) ) ;
#264 = FACE_BOUND ( 'NONE', #102, .T. ) ;
#265 = EDGE_CURVE ( 'NONE', #335, #138, #200, .T. ) ;
#266 = AXIS2_PLACEMENT_3D ( 'NONE', #18, #256, #65 ) ;
#267 = CARTESIAN_POINT ( 'NONE',  ( 0.000000000000000000, 0.000000000000000000, 0.000000000000000000 ) ) ;
#268 = DIRECTION ( 'NONE',  ( -0.000000000000000000, -1.000000000000000000, -0.000000000000000000 ) ) ;
#269 = AXIS2_PLACEMENT_3D ( 'NONE', #184, #29, #301 ) ;
#270 = DIRECTION ( 'NONE',  ( -0.000000000000000000, -1.000000000000000000, -0.000000000000000000 ) ) ;
#271 = EDGE_CURVE ( 'NONE', #192, #84, #93, .T. ) ;
#272 = AXIS2_PLACEMENT_3D ( 'NONE', #39, #161, #244 ) ;
#273 = DIRECTION ( 'NONE',  ( 0.000000000000000000, 0.000000000000000000, 1.000000000000000000 ) ) ;
#274 = CYLINDRICAL_SURFACE ( 'NONE', #185, 30.00000000000000000 ) ;
#275 = ORIENTED_EDGE ( 'NONE', *, *, #90, .T. ) ;
#276 = AXIS2_PLACEMENT_3D ( 'NONE', #80, #243, #214 ) ;
#277 = ORIENTED_EDGE ( 'NONE', *, *, #177, .T. ) ;
#278 = EDGE_LOOP ( 'NONE', ( #112, #116 ) ) ;
#279 = ORIENTED_EDGE ( 'NONE', *, *, #30, .F. ) ;
#280 = AXIS2_PLACEMENT_3D ( 'NONE', #156, #158, #325 ) ;
#281 = DIRECTION ( 'NONE',  ( -0.000000000000000000, -1.000000000000000000, -0.000000000000000000 ) ) ;
#282 = EDGE_CURVE ( 'NONE', #72, #199, #159, .T. ) ;
#283 = AXIS2_PLACEMENT_3D ( 'NONE', #117, #171, #227 ) ;
#284 = MECHANICAL_DESIGN_GEOMETRIC_PRESENTATION_REPRESENTATION (  '', ( #307 ), #299 ) ;
#285 = CYLINDRICAL_SURFACE ( 'NONE', #260, 3.000000000000000444 ) ;
#286 = DIRECTION ( 'NONE',  ( -0.000000000000000000, -1.000000000000000000, -0.000000000000000000 ) ) ;
#287 = AXIS2_PLACEMENT_3D ( 'NONE', #240, #182, #302 ) ;
#288 = DIRECTION ( 'NONE',  ( 0.000000000000000000, 1.000000000000000000, 0.000000000000000000 ) ) ;
#289 = PRODUCT_DEFINITION_SHAPE ( 'NONE', 'NONE',  #160 ) ;
#290 = EDGE_CURVE ( 'NONE', #114, #225, #124, .T. ) ;
#291 = CARTESIAN_POINT ( 'NONE',  ( -2.449999999999999289, 4.000000000000000000, -1.731328969318080224 ) ) ;
#292 = SURFACE_STYLE_USAGE ( .BOTH. , #257 ) ;
#293 = CARTESIAN_POINT ( 'NONE',  ( -20.00000000000000000, 4.000000000000000000, 0.000000000000000000 ) ) ;
#294 = CARTESIAN_POINT ( 'NONE',  ( 3.673940397442059178E-15, 4.000000000000000000, 30.00000000000000000 ) ) ;
#295 = DIRECTION ( 'NONE',  ( 0.000000000000000000, 1.000000000000000000, 0.000000000000000000 ) ) ;
#296 = EDGE_CURVE ( 'NONE', #248, #82, #216, .T. ) ;
#297 = CIRCLE ( 'NONE', #287, 3.000000000000000444 ) ;
#298 = DIRECTION ( 'NONE',  ( 0.000000000000000000, 0.000000000000000000, 1.000000000000000000 ) ) ;
#299 =( GEOMETRIC_REPRESENTATION_CONTEXT ( 3 ) GLOBAL_UNCERTAINTY_ASSIGNED_CONTEXT ( ( #148 ) ) GLOBAL_UNIT_ASSIGNED_CONTEXT ( ( #341, #230, #71 ) ) REPRESENTATION_CONTEXT ( 'NONE', 'WORKASPACE' ) );
#300 = CARTESIAN_POINT ( 'NONE',  ( 0.000000000000000000, 4.000000000000000000, -3.000000000000000444 ) ) ;
#301 = DIRECTION ( 'NONE',  ( 0.000000000000000000, 0.000000000000000000, 1.000000000000000000 ) ) ;
#302 = DIRECTION ( 'NONE',  ( 0.000000000000000000, 0.000000000000000000, 1.000000000000000000 ) ) ;
#303 =( NAMED_UNIT ( * ) PLANE_ANGLE_UNIT ( ) SI_UNIT ( $, .RADIAN. ) );
#304 = EDGE_LOOP ( 'NONE', ( #223, #19, #74, #17 ) ) ;
#305 = ORIENTED_EDGE ( 'NONE', *, *, #141, .F. ) ;
#306 = VERTEX_POINT ( 'NONE', #215 ) ;
#307 = STYLED_ITEM ( 'NONE', ( #105 ), #207 ) ;
#308 = ORIENTED_EDGE ( 'NONE', *, *, #31, .F. ) ;
#309 = ORIENTED_EDGE ( 'NONE', *, *, #31, .T. ) ;
#310 = VERTEX_POINT ( 'NONE', #77 ) ;
#311 = ORIENTED_EDGE ( 'NONE', *, *, #232, .F. ) ;
#312 = FACE_OUTER_BOUND ( 'NONE', #194, .T. ) ;
#313 = CARTESIAN_POINT ( 'NONE',  ( 0.000000000000000000, 4.000000000000000000, -3.000000000000000444 ) ) ;
#314 = ADVANCED_FACE ( 'NONE', ( #131 ), #274, .T. ) ;
#315 = CARTESIAN_POINT ( 'NONE',  ( 0.000000000000000000, 4.000000000000000000, 0.000000000000000000 ) ) ;
#316 = CYLINDRICAL_SURFACE ( 'NONE', #219, 30.00000000000000000 ) ;
#317 = CARTESIAN_POINT ( 'NONE',  ( 0.000000000000000000, 4.000000000000000000, 0.000000000000000000 ) ) ;
#318 = ORIENTED_EDGE ( 'NONE', *, *, #296, .F. ) ;
#319 = ADVANCED_FACE ( 'NONE', ( #1 ), #186, .F. ) ;
#320 = ORIENTED_EDGE ( 'NONE', *, *, #90, .F. ) ;
#321 = EDGE_CURVE ( 'NONE', #11, #199, #297, .T. ) ;
#322 = FACE_BOUND ( 'NONE', #304, .T. ) ;
#323 = PLANE ( 'NONE',  #137 ) ;
#324 = VECTOR ( 'NONE', #50, 1000.000000000000000 ) ;
#325 = DIRECTION ( 'NONE',  ( 0.000000000000000000, 0.000000000000000000, 1.000000000000000000 ) ) ;
#326 = CARTESIAN_POINT ( 'NONE',  ( 0.000000000000000000, 4.000000000000000000, 0.000000000000000000 ) ) ;
#327 = AXIS2_PLACEMENT_3D ( 'NONE', #43, #176, #96 ) ;
#328 = VECTOR ( 'NONE', #129, 1000.000000000000000 ) ;
#329 = DIRECTION ( 'NONE',  ( -0.000000000000000000, 1.000000000000000000, -0.000000000000000000 ) ) ;
#330 = ORIENTED_EDGE ( 'NONE', *, *, #190, .F. ) ;
#331 = ORIENTED_EDGE ( 'NONE', *, *, #247, .F. ) ;
#332 = ORIENTED_EDGE ( 'NONE', *, *, #271, .T. ) ;
#333 = EDGE_CURVE ( 'NONE', #114, #248, #81, .T. ) ;
#334 = ORIENTED_EDGE ( 'NONE', *, *, #92, .T. ) ;
#335 = VERTEX_POINT ( 'NONE', #133 ) ;
#336 = DIRECTION ( 'NONE',  ( 0.000000000000000000, 1.000000000000000000, 0.000000000000000000 ) ) ;
#337 = CARTESIAN_POINT ( 'NONE',  ( 0.000000000000000000, 4.000000000000000000, -30.00000000000000000 ) ) ;
#338 = FACE_OUTER_BOUND ( 'NONE', #140, .T. ) ;
#339 = UNCERTAINTY_MEASURE_WITH_UNIT (LENGTH_MEASURE( 1.000000000000000082E-05 ), #238, 'distance_accuracy_value', 'NONE');
#340 = DIRECTION ( 'NONE',  ( 0.000000000000000000, -0.000000000000000000, 1.000000000000000000 ) ) ;
#341 =( LENGTH_UNIT ( ) NAMED_UNIT ( * ) SI_UNIT ( .MILLI., .METRE. ) );
#342 = VERTEX_POINT ( 'NONE', #187 ) ;
#343 = LINE ( 'NONE', #73, #324 ) ;
#344 = EDGE_CURVE ( 'NONE', #225, #114, #130, .T. ) ;
#345 = DIRECTION ( 'NONE',  ( 0.000000000000000000, 1.000000000000000000, 0.000000000000000000 ) ) ;
#346 = SURFACE_STYLE_FILL_AREA ( #145 ) ;
#347 = EDGE_CURVE ( 'NONE', #306, #342, #52, .T. ) ;
ENDSEC;
END-ISO-10303-21;
